PathFileType	4	(X/Y/Z)	55_2_87_p0_0-290_filt_butterworth.trc
DataRate	CameraRate	NumFrames	NumMarkers	Units	OrigDataRate	OrigDataStartFrame	OrigNumFrames
53.0	53.0	6	27	m	53.0	145	290
Frame#	Time	RHip			RKnee			RAnkle			RBigToe			RSmallToe			RHeel			LHip			LKnee			LAnkle			LBigToe			LSmallToe			LHeel			Neck			Head			Nose			RShoulder			RElbow			RWrist			RThumb			RIndex			RPinky			LShoulder			LElbow			LWrist			LThumb			LIndex			LPinky			
		X1	Y1	Z1	X2	Y2	Z2	X3	Y3	Z3	X4	Y4	Z4	X5	Y5	Z5	X6	Y6	Z6	X7	Y7	Z7	X8	Y8	Z8	X9	Y9	Z9	X10	Y10	Z10	X11	Y11	Z11	X12	Y12	Z12	X13	Y13	Z13	X14	Y14	Z14	X15	Y15	Z15	X16	Y16	Z16	X17	Y17	Z17	X18	Y18	Z18	X19	Y19	Z19	X20	Y20	Z20	X21	Y21	Z21	X22	Y22	Z22	X23	Y23	Z23	X24	Y24	Z24	X25	Y25	Z25	X26	Y26	Z26	X27	Y27	Z27	
145	2.7358490566037736	0.3305889702866706	0.5070673437107677	0.792751482409459	0.3263934140192659	0.5732949864066621	1.199904235131328	0.31630392328546564	0.6291516781932073	1.6441357214195094	0.2911007789413889	0.43264182179445254	1.6431061717334419	0.35557954424865146	0.4413284263724489	1.6528342462034378	0.302764423402203	0.6820342979412097	1.7000167919988205	0.13471603442943622	0.5403686685984159	0.7903302938206895	0.12789778797367857	0.5808259082977285	1.1946801580286786	0.14020135404709075	0.6109866854183555	1.6075470466359003	0.11780534377992123	0.40596197023640507	1.6146200667195918	0.07342542075014291	0.46558423346878475	1.636293178252295	0.16133555164438076	0.6723317260062902	1.6805559988345273	0.23381079590948498	0.5565829764089579	0.20811121950326067	0.22690945516289263	0.5310158231687271	-0.033515801131658425	0.21462914893614726	0.45780802090078854	0.08320025093428919	0.37846551564163644	0.5471761906060139	0.30837062170360385	0.4162953868520278	0.4950778118662291	0.5735486818965978	0.39692474674793854	0.4292841047252412	0.8282411970207133	0.3359470881262183	0.38934174810086225	0.9438830346692421	0.3444630986338044	0.3733673407721132	0.9461695091643967	0.3651224312468823	0.4244483259143612	0.9534160193072614	0.08351182425008938	0.6081205730770487	0.2956455983753421	0.06650541976358401	0.44426220056609167	0.48767586307907457	0.13480460679283018	0.38682261979954335	0.3200594471451096	0.13340389212355072	0.48495729938902554	0.22649286894794213	0.14522581191630896	0.4090072552022691	0.1950666545756353	0.13879939233841004	0.35795349610453914	0.21701496386434982
146	2.7547169811320757	0.330600531635444	0.5070255241103774	0.7931620022109324	0.32644975506851864	0.5733239279472553	1.2003314890336898	0.3163402942615568	0.6291790679613117	1.6441408131478359	0.29084704271910267	0.43343761234984957	1.6428985390055764	0.3567418988898948	0.44456141813476907	1.6542211517025527	0.30283268363125804	0.682243484523346	1.700117587185126	0.13471881004148253	0.5400067927490393	0.7907418006252481	0.1279167535095386	0.5847746778715294	1.1951408583291956	0.14019336619701955	0.6109818208006842	1.6075469313211137	0.1176866236832476	0.4058222653298381	1.6146961909164932	0.07335397586448532	0.46564930284989353	1.6366400416240492	0.1612888287378048	0.6723130467242082	1.680447100153092	0.23386905770434455	0.5565452975894396	0.20841405197743607	0.22695111406028706	0.5310300589997115	-0.03333770736535699	0.21465067872793359	0.45743008323865725	0.08315262739665524	0.3784740842528803	0.5471615271255764	0.3084047671399289	0.41596945407959185	0.4926445044954164	0.5724112231523948	0.39701384551780233	0.42918479256622544	0.8282713018785968	0.3359145704901829	0.38945444290100106	0.9435809378403653	0.34420340652015585	0.37439764022660926	0.9465722188504401	0.3640901180552364	0.4232342502284824	0.9535465202564107	0.08340886815992843	0.6078178440953494	0.29498919217333697	0.06601820201329026	0.44773186659900727	0.48838257850176836	0.1347697650581959	0.3865329197829216	0.3186215212644957	0.1327884043253348	0.4783772178858844	0.22331642726737097	0.14530589812170916	0.4089175921599231	0.19459398273123105	0.13900296267644813	0.35853427036462104	0.2170274658195863
147	2.7735849056603774	0.3306503308043505	0.5069673302224436	0.793942218315083	0.3266192706120765	0.5734297562172144	1.2022342403122461	0.3163436323032039	0.6291845991756817	1.644105138392473	0.29070501018435135	0.43318959402188506	1.6433690698398606	0.3582072781031891	0.4488907942683438	1.6553384538580018	0.3030286321691493	0.68224020228047	1.7001924998247255	0.13472792225476293	0.5411655414537441	0.7917367640100039	0.12801104578903	0.5903326587444854	1.197790150419294	0.14018841523411116	0.6110079044062741	1.6075674744270687	0.11761179213144544	0.40558829235053484	1.6154539421348213	0.07308190279241027	0.46575296990664117	1.6377673743729846	0.16125052033480086	0.672281061965498	1.680486670202531	0.2339933563562672	0.5566853234868212	0.20840822923130276	0.22696768370399917	0.5309483821548728	-0.03362667688405291	0.21471164244640292	0.4571554666588231	0.08310237433072537	0.3784952035032896	0.5471312211746108	0.3084593089052601	0.4171355912693098	0.48984529596813664	0.5707532760178614	0.3970523997768717	0.4291931799418287	0.8282375229184488	0.33590772971092503	0.3894459923334849	0.9436589187518407	0.34423524010498313	0.37418983829411745	0.9464458968944129	0.3639494298466359	0.42299036603024126	0.9545655580891548	0.08373605581875274	0.6093781600903326	0.2937545868427186	0.06602907912173298	0.44906032092455866	0.4870396460855015	0.13360845788688985	0.3849769350174681	0.3152146800865658	0.13258506157887365	0.4764300349974822	0.2210273517030872	0.14510567232840224	0.4089365277124476	0.19331768827692136	0.1391882318940426	0.3592512968912514	0.21646825408340192
148	2.792452830188679	0.3307006336044017	0.5069288628257862	0.7943738969229004	0.32685363344777724	0.5736381140452164	1.205227347800717	0.3163140734873794	0.629194798456906	1.6440652089461265	0.2908705366230626	0.43289613961142376	1.6448402985608923	0.35907307262696087	0.45184478345470835	1.6553912539954516	0.3031072473538479	0.6820699920009536	1.7001502945750924	0.134743037086081	0.5450392886006408	0.7928511411540311	0.12809192276313314	0.5946451462554788	1.2008873041808774	0.1401957336658974	0.6110576655310943	1.6076195360831027	0.11736940885024356	0.4056875240903324	1.6169518331172184	0.0727133708849105	0.465853182405256	1.639795193195399	0.16124728985348985	0.6722581681864164	1.6806308308233464	0.23406146893127006	0.5569237028651226	0.20832006628362987	0.22696576019855236	0.530852179681808	-0.03387259343231464	0.21450883493969466	0.45809621854290883	0.0831962487132869	0.3785313155819537	0.5470948089014093	0.3085495131466792	0.418967092102905	0.4864236289352561	0.5692745813215854	0.3970547394267801	0.4292234361722239	0.8281714670403808	0.3359052829787065	0.38942150508342305	0.9437834281793417	0.344314604629669	0.37392956639762376	0.9463277816769722	0.3643839281749735	0.42320133871046467	0.9565708216023326	0.08482339342246883	0.6135365702830688	0.2926134289287544	0.06611075058167731	0.4471384610883994	0.4851089922300726	0.1312532722763435	0.3837752990423494	0.31145656302989494	0.1322796282164348	0.4781071590018154	0.21942449679311893	0.1439963606311393	0.4092654984722869	0.19167053508261783	0.13905255931208332	0.3595583843838779	0.21543643013344835
149	2.811320754716981	0.3306925552124271	0.507021288776271	0.7936171740352758	0.32705893839477135	0.5738627867334741	1.2071929718890106	0.3162843843372569	0.6292288891739756	1.6440934441098978	0.2911035018592856	0.43279486268729594	1.6468444191823246	0.35915091629536366	0.45254081358556586	1.6547081383978184	0.30301533248485096	0.681980737604425	1.700098657562984	0.13475630932448235	0.5504997162848065	0.7937496303676839	0.12812134048659166	0.5962195339782195	1.2024197269176222	0.14021002720895492	0.6111034624181086	1.6076746232983756	0.11725152582929266	0.40699548032092747	1.6170387120327856	0.07252071344826345	0.465832896562171	1.6419967314521005	0.16126812609525623	0.6722657422259125	1.6807556749992267	0.23400438965963524	0.5570603675996184	0.2079504625248274	0.22691764836456432	0.5307441822797161	-0.03386335578677132	0.21375241161779934	0.4614007883914758	0.08360446081589062	0.3785697091856596	0.5471180700929649	0.308606431302369	0.420100987843273	0.4835616534416131	0.5683589754362807	0.39704816079781186	0.42924457815049905	0.828118890757687	0.335902932763112	0.38940789212468874	0.9438561283559521	0.34436667132283355	0.37389709328687915	0.9463282854541465	0.36519677521195304	0.4235292213745207	0.9584410881341396	0.08632531593759028	0.618728755589175	0.2919850757489524	0.06567302170986106	0.4402964286196628	0.4831958540136422	0.12799241617109766	0.38583590889629077	0.3090802097789019	0.13122289158421482	0.4819742398133557	0.21843110218132228	0.1416859422877027	0.41032828180278513	0.19097309537364424	0.13820552213234746	0.3592477346668975	0.21444104842292444
150	2.830188679245283	0.33062593386791783	0.5073586136375724	0.7918268955555945	0.3271520412528914	0.5739685777230877	1.20656996756708	0.3162987153608117	0.6293231534512329	1.6442707164319148	0.2913081777784046	0.43280439948878413	1.6483118622481225	0.3589004209824719	0.45197680847606847	1.654130465660872	0.30294408643820053	0.6820763964667145	1.7002019031803053	0.13476422126400153	0.5545921250611996	0.7945847558868309	0.12817086712489995	0.5962346658796824	1.2026254385411095	0.14022658848099062	0.611116009324603	1.607694892523349	0.11760736287346085	0.40952793039604846	1.615829419863922	0.0726422079529244	0.46568338546228855	1.642977187595649	0.16128947014896372	0.6723041504104202	1.6807738617813068	0.23384421366807123	0.5569648793462423	0.20701698942548605	0.22675660946293422	0.5305201317797492	-0.03372924784011496	0.21266626688675752	0.4660911217019662	0.08424348887534078	0.3785930610197707	0.5472413685376769	0.30831463544395715	0.42032017723783355	0.4824359277494982	0.5680652437346088	0.3970417177504807	0.4292412538091209	0.8281210623356032	0.33590024920261147	0.38939834149208596	0.9438743694909135	0.34438567387400376	0.37395216084585825	0.9463590525082837	0.3662865753221537	0.42374028271881425	0.9577788814614765	0.08740213340133118	0.6222512729278027	0.29123658080392956	0.0644159698648891	0.42982062502785406	0.4806419792036737	0.12433429011195418	0.39118434825245785	0.308620336727452	0.12904799268714592	0.4863309145156175	0.21835927594413074	0.1387390262998422	0.41194280008184875	0.19165432289544534	0.13635812737427658	0.35850899504328965	0.21381892488089577
